<svg width="48" height="48" viewBox="0 0 48 48" fill="none" xmlns="http://www.w3.org/2000/svg">
<circle cx="24" cy="24" r="24" fill="#D9D9D9"/>
<path d="M23.9997 26.796C25.5439 26.796 26.7958 25.5442 26.7958 23.9999C26.7958 22.4557 25.5439 21.2039 23.9997 21.2039C22.4555 21.2039 21.2036 22.4557 21.2036 23.9999C21.2036 25.5442 22.4555 26.796 23.9997 26.796Z" fill="black"/>
<path d="M24 2.61816C12.1912 2.61816 2.61816 12.1912 2.61816 24C2.61816 35.8088 12.1912 45.3818 24 45.3818C35.8088 45.3818 45.3818 35.8088 45.3818 24C45.3818 12.1912 35.8088 2.61816 24 2.61816ZM15.8474 7.93599C18.295 6.69174 21.0656 5.99001 24 5.99001C24.1723 5.99001 24.3431 5.99233 24.5139 5.99697C24.7975 6.00469 24.9923 6.70951 24.9498 7.56194L24.7319 11.9493C24.6893 12.8017 24.5085 13.4841 24.3277 13.4787C24.2187 13.4756 24.1097 13.4741 24 13.4741C22.4566 13.4741 20.9906 13.8064 19.6698 14.403C18.8916 14.7546 17.9603 14.5452 17.526 13.8103L15.2879 10.0257C14.8536 9.29076 15.0862 8.32318 15.8474 7.93599ZM14.9726 15.9842L11.6664 13.0923C11.0234 12.5305 10.957 11.5513 11.5745 10.9624C11.5891 10.9485 11.6031 10.9353 11.6185 10.9214C12.2383 10.3341 13.2098 10.4539 13.7337 11.127L16.434 14.5924C16.9588 15.2655 17.0809 16.0522 16.7362 16.3807C16.3907 16.7107 15.6156 16.5461 14.9726 15.9842ZM16.434 24C16.434 19.8213 19.8213 16.434 24 16.434C28.1787 16.434 31.566 19.8213 31.566 24C31.566 28.1787 28.1787 31.566 24 31.566C19.8213 31.566 16.434 28.1787 16.434 24ZM32.117 40.0818C29.6779 41.3152 26.9197 42.01 24 42.01C23.8083 42.01 23.6174 42.0069 23.4273 42.0015C23.1112 41.9914 22.8925 41.2835 22.9389 40.4311L23.1785 36.0445C23.2256 35.1921 23.4273 34.5135 23.6313 34.5205C23.7535 34.5243 23.8763 34.5267 24 34.5267C25.4173 34.5267 26.7683 34.2469 28.0025 33.7399C28.7923 33.4153 29.7606 33.6286 30.2259 34.3443L32.6224 38.0307C33.0877 38.7455 32.879 39.6961 32.117 40.0818ZM36.3281 37.1295C35.7361 37.686 34.7786 37.5554 34.2392 36.8938L31.4647 33.488C30.9253 32.8264 30.7877 32.0598 31.1285 31.7453C31.4701 31.4307 32.2437 31.6069 32.886 32.1695L36.1937 35.063C36.8366 35.6249 36.9209 36.5731 36.3281 37.1295Z" fill="black"/>
</svg>
