<svg width="25" height="25" viewBox="0 0 25 25" fill="none" xmlns="http://www.w3.org/2000/svg">
<path fill-rule="evenodd" clip-rule="evenodd" d="M24.3163 11.3884L1.81779 0.13916C1.36538 -0.0942695 0.816606 -0.0299985 0.43038 0.301649C0.0457443 0.635701 -0.097662 1.16977 0.0679045 1.65156L3.75516 12.5008L0.1304 23.3501C0.00434954 23.7219 0.0602715 24.1313 0.28141 24.4556C0.502548 24.7799 0.863209 24.9815 1.25533 25C1.45099 24.9988 1.64365 24.9517 1.81779 24.8625L24.3163 13.6133C24.7337 13.3994 24.9963 12.9699 24.9963 12.5008C24.9963 12.0318 24.7337 11.6023 24.3163 11.3884ZM3.39272 21.2503L5.89255 13.7508H18.3917L3.39272 21.2503ZM3.39272 3.75143L5.89255 11.2509H18.4542L3.39272 3.75143Z" fill="white"/>
</svg>
