<svg width="25" height="25" viewBox="0 0 25 25" fill="none" xmlns="http://www.w3.org/2000/svg">
<path fill-rule="evenodd" clip-rule="evenodd" d="M24.8305 9.28595C25.1552 10.2331 24.9182 11.2823 24.2181 11.998L20.2188 16.0973C20.192 16.1437 20.192 16.2009 20.2188 16.2473L21.0811 21.8963C21.246 22.902 20.8221 23.9136 19.9896 24.5015C19.157 25.0893 18.0619 25.1502 17.1693 24.6583L12.5076 22.0713C12.4606 22.0468 12.4046 22.0468 12.3576 22.0713L7.69591 24.6583C6.80417 25.1612 5.7025 25.1054 4.86619 24.5149C4.02988 23.9244 3.60859 22.9049 3.78408 21.8963L4.70892 16.2223C4.73191 16.1705 4.73191 16.1115 4.70892 16.0598L0.759597 11.998C0.0628909 11.2807 -0.17786 10.2358 0.134704 9.28595C0.449114 8.33715 1.27071 7.64604 2.25934 7.49876L7.60842 6.6364C7.66219 6.62193 7.70748 6.5857 7.7334 6.53642L10.083 1.53728C10.5108 0.597422 11.45 -0.00422944 12.4826 4.04553e-05C13.5276 0.000643394 14.4737 0.618291 14.8947 1.57477L17.2443 6.57392C17.2648 6.62249 17.3061 6.65922 17.3568 6.6739L22.7183 7.49876C23.706 7.64207 24.5257 8.33564 24.8305 9.28595ZM17.7441 16.6221C17.6109 15.7843 17.8794 14.9326 18.4689 14.3225L22.4682 10.2107C22.5045 10.1535 22.5045 10.0805 22.4682 10.0233C22.4463 9.96358 22.3936 9.92051 22.3308 9.91079L16.9817 9.08594C16.1017 8.9555 15.346 8.39219 14.9695 7.58619L12.6324 2.58705C12.6061 2.52897 12.546 2.49388 12.4825 2.49956C12.4439 2.49604 12.4056 2.50895 12.3771 2.53513C12.3485 2.5613 12.3323 2.59831 12.3325 2.63704L9.98288 7.63618C9.62378 8.42996 8.89255 8.99244 8.03322 9.13593L2.67164 9.96079C2.61231 9.97213 2.56417 10.0155 2.54666 10.0733C2.51317 10.1313 2.51317 10.2027 2.54666 10.2607L6.49598 14.3475C7.0908 14.9544 7.36013 15.8088 7.22086 16.6471L6.29602 22.3212C6.28734 22.3888 6.31605 22.4558 6.371 22.4961H6.53347L11.1577 19.8841C11.9588 19.4415 12.9311 19.4415 13.7322 19.8841L18.4939 22.4711C18.5407 22.5112 18.6096 22.5112 18.6564 22.4711C18.7114 22.4308 18.7401 22.3638 18.7314 22.2962L17.7441 16.6221Z" fill="white"/>
</svg>
