<svg width="25" height="25" viewBox="0 0 25 25" fill="none" xmlns="http://www.w3.org/2000/svg">
<path d="M24.2181 11.998C24.9182 11.2823 25.1552 10.233 24.8305 9.28593C24.5257 8.33562 23.706 7.64206 22.7183 7.49874L17.3568 6.67388C17.3061 6.6592 17.2648 6.62247 17.2443 6.5739L14.8947 1.57475C14.4737 0.618273 13.5276 0.000625518 12.4826 2.2579e-05C11.45 -0.00424731 10.5108 0.597404 10.083 1.53726L7.7334 6.5364C7.70748 6.58568 7.66219 6.62191 7.60842 6.63639L2.25934 7.49874C1.27071 7.64602 0.449114 8.33713 0.134704 9.28593C-0.17786 10.2358 0.0628909 11.2807 0.759597 11.998L4.70892 16.0598C4.73191 16.1115 4.73191 16.1705 4.70892 16.2222L3.78408 21.8963C3.60859 22.9049 4.02988 23.9244 4.86619 24.5149C5.7025 25.1053 6.80417 25.1612 7.69591 24.6583L12.3576 22.0712C12.4046 22.0468 12.4606 22.0468 12.5076 22.0712L17.1693 24.6583C18.0619 25.1502 19.157 25.0893 19.9896 24.5015C20.8221 23.9136 21.246 22.902 21.0811 21.8963L20.2188 16.2472C20.192 16.2008 20.192 16.1437 20.2188 16.0973L24.2181 11.998Z" fill="white"/>
</svg>
