<svg width="27" height="28" viewBox="0 0 27 28" fill="none" xmlns="http://www.w3.org/2000/svg">
<path d="M7.65264 26.5V12.75M1.5 15.25V24C1.5 25.3807 2.60185 26.5 3.96105 26.5H20.4824C22.3045 26.5 23.854 25.1496 24.1311 23.3202L25.4563 14.5702C25.8003 12.2986 24.0701 10.25 21.8076 10.25H17.4969C16.8172 10.25 16.2663 9.69035 16.2663 9V4.5823C16.2663 2.87999 14.9078 1.5 13.2321 1.5C12.8323 1.5 12.4702 1.73913 12.3078 2.11015L7.97742 12.0076C7.77992 12.4591 7.33925 12.75 6.85295 12.75H3.96105C2.60185 12.75 1.5 13.8693 1.5 15.25Z" stroke="white" stroke-width="3" stroke-linecap="round" stroke-linejoin="round"/>
</svg>
